<svg width="1280" height="640" viewBox="0 0 1280 640" fill="none" xmlns="http://www.w3.org/2000/svg">
  <defs>
    <linearGradient id="bg" x1="0" y1="0" x2="1280" y2="640" gradientUnits="userSpaceOnUse">
      <stop offset="0" stop-color="#0b0f1a"/>
      <stop offset="1" stop-color="#111827"/>
    </linearGradient>
    <linearGradient id="accent" x1="160" y1="140" x2="1120" y2="520" gradientUnits="userSpaceOnUse">
      <stop offset="0" stop-color="#14b8a6"/>
      <stop offset="1" stop-color="#f97316"/>
    </linearGradient>
    <pattern id="grid" width="48" height="48" patternUnits="userSpaceOnUse">
      <path d="M48 0H0V48" stroke="#1f2937" stroke-width="1"/>
    </pattern>
    <filter id="cardShadow" x="0" y="0" width="1280" height="640" filterUnits="userSpaceOnUse" color-interpolation-filters="sRGB">
      <feDropShadow dx="0" dy="22" stdDeviation="26" flood-color="#000000" flood-opacity="0.45"/>
    </filter>
  </defs>

  <rect width="1280" height="640" fill="url(#bg)"/>
  <rect width="1280" height="640" fill="url(#grid)" opacity="0.35"/>

  <g filter="url(#cardShadow)">
    <rect x="120" y="120" width="1040" height="400" rx="28" fill="#0f172a"/>
    <rect x="120" y="120" width="1040" height="400" rx="28" fill="url(#accent)" opacity="0.12"/>
  </g>

  <g transform="translate(200 180)">
    <text x="0" y="0" font-family="Sora, Space Grotesk, IBM Plex Sans, sans-serif" font-size="56" font-weight="700" fill="#f8fafc" letter-spacing="-0.02em">Design System</text>
    <text x="0" y="60" font-family="Sora, Space Grotesk, IBM Plex Sans, sans-serif" font-size="28" font-weight="500" fill="#cbd5f5">Components built on shadcn/ui + Tailwind CSS</text>

    <g transform="translate(0 110)">
      <rect x="0" y="0" width="210" height="44" rx="22" fill="#0f766e"/>
      <text x="20" y="29" font-family="Sora, Space Grotesk, IBM Plex Sans, sans-serif" font-size="18" font-weight="600" fill="#ecfeff">shadcn/ui</text>

      <rect x="230" y="0" width="220" height="44" rx="22" fill="#f97316"/>
      <text x="250" y="29" font-family="Sora, Space Grotesk, IBM Plex Sans, sans-serif" font-size="18" font-weight="600" fill="#fff7ed">Tailwind CSS</text>

      <rect x="470" y="0" width="210" height="44" rx="22" fill="#111827"/>
      <text x="490" y="29" font-family="Sora, Space Grotesk, IBM Plex Sans, sans-serif" font-size="18" font-weight="600" fill="#e2e8f0">TypeScript</text>
    </g>

    <g transform="translate(0 210)">
      <rect x="0" y="0" width="520" height="120" rx="20" fill="#0b1220" stroke="#1f2937" stroke-width="2"/>
      <path d="M28 46H240" stroke="#64748b" stroke-width="6" stroke-linecap="round"/>
      <path d="M28 78H360" stroke="#94a3b8" stroke-width="6" stroke-linecap="round"/>
      <path d="M28 102H300" stroke="#1f2937" stroke-width="6" stroke-linecap="round"/>
      <circle cx="450" cy="60" r="28" fill="#0f766e"/>
      <path d="M444 58H458" stroke="#ecfeff" stroke-width="4" stroke-linecap="round"/>
      <path d="M451 51V65" stroke="#ecfeff" stroke-width="4" stroke-linecap="round"/>
    </g>
  </g>

  <g transform="translate(940 190)">
    <rect x="0" y="0" width="220" height="260" rx="24" fill="#0b1220" stroke="#1f2937" stroke-width="2"/>
    <rect x="18" y="20" width="184" height="28" rx="14" fill="#111827"/>
    <rect x="18" y="62" width="150" height="16" rx="8" fill="#1f2937"/>
    <rect x="18" y="90" width="180" height="16" rx="8" fill="#1f2937"/>
    <rect x="18" y="118" width="120" height="16" rx="8" fill="#1f2937"/>
    <rect x="18" y="156" width="184" height="84" rx="16" fill="#0f766e"/>
    <path d="M40 196H170" stroke="#ccfbf1" stroke-width="6" stroke-linecap="round"/>
  </g>

  <g transform="translate(860 488)">
    <rect x="0" y="0" width="300" height="36" rx="18" fill="#0b1220" stroke="#1f2937" stroke-width="1.5"/>
    <rect x="10" y="10" width="16" height="16" rx="8" fill="url(#accent)" opacity="0.9"/>
    <text x="34" y="23" font-family="Sora, Space Grotesk, IBM Plex Sans, sans-serif" font-size="13" font-weight="600" fill="#cbd5f5">Created by Adam Hinckley</text>
  </g>
</svg>
